<?xml version="1.0" encoding="UTF-8" standalone="no"?>
<svg
   version="1.1"
   id="Layer_1"
   x="0px"
   y="0px"
   width="100%"
   viewBox="0 0 661 614"
   enable-background="new 0 0 661 614"
   xml:space="preserve"
   sodipodi:docname="logo.svg"
   inkscape:version="1.4.3 (0d15f75, 2025-12-25)"
   xmlns:inkscape="http://www.inkscape.org/namespaces/inkscape"
   xmlns:sodipodi="http://sodipodi.sourceforge.net/DTD/sodipodi-0.dtd"
   xmlns="http://www.w3.org/2000/svg"
   xmlns:svg="http://www.w3.org/2000/svg"><defs
   id="defs6" /><sodipodi:namedview
   id="namedview6"
   pagecolor="#505050"
   bordercolor="#eeeeee"
   borderopacity="1"
   inkscape:showpageshadow="0"
   inkscape:pageopacity="0"
   inkscape:pagecheckerboard="0"
   inkscape:deskcolor="#505050"
   inkscape:zoom="1.3925081"
   inkscape:cx="330.33918"
   inkscape:cy="307"
   inkscape:window-width="1920"
   inkscape:window-height="1057"
   inkscape:window-x="1912"
   inkscape:window-y="-8"
   inkscape:window-maximized="1"
   inkscape:current-layer="Layer_1" />

<path
   fill="#FFFFFF"
   opacity="1.000000"
   stroke="none"
   d=" M327.000000,536.000000   C342.496460,536.000000 357.498688,536.258484 372.487610,535.922241   C385.664062,535.626770 398.866150,535.102905 411.983582,533.888245   C428.681671,532.341858 445.408508,530.610413 461.935608,527.840759   C481.796478,524.512451 501.467499,520.042786 521.199707,515.965698   C523.529053,515.484375 526.041382,514.803894 527.927551,513.457397   C534.700745,508.622009 542.319885,508.932159 550.045410,508.959991   C578.189880,509.061340 606.334900,509.000000 634.740234,509.000000   C637.186890,520.472595 639.957642,531.779480 636.933289,543.351501   C634.903503,551.117737 628.718933,555.934631 622.355957,559.773132   C608.164856,568.333984 592.050842,571.987366 576.187866,575.886841   C559.302490,580.037537 542.257751,583.610168 525.170837,586.844788   C514.799194,588.808228 504.204498,589.571716 493.731018,591.025574   C485.218262,592.207336 476.759888,593.799255 468.234467,594.866150   C460.604767,595.821045 452.927185,596.476501 445.251709,596.965637   C427.840851,598.075317 410.418152,598.998474 393.000580,600.003540   C387.415436,600.325806 381.835144,600.855774 376.246216,600.966370   C355.166992,601.383362 334.085815,601.853882 313.004028,601.930115   C300.255890,601.976196 287.500092,601.463989 274.757141,600.963013   C262.081879,600.464600 249.388809,600.007324 236.757446,598.910950   C221.974625,597.627930 207.229050,595.838806 192.505737,593.967224   C175.589020,591.816711 158.624741,589.840515 141.845245,586.863647   C122.976410,583.516113 104.227318,579.411011 85.549820,575.099731   C74.786339,572.615234 64.115028,569.507751 53.686581,565.866333   C45.305603,562.939758 36.992039,559.384155 30.888775,552.377869   C23.703732,544.129883 24.449305,534.207397 25.353891,524.421143   C25.793415,519.666260 27.276276,515.007690 28.352476,510.000000   C31.826927,510.000000 35.304031,510.000000 38.781136,510.000000   C64.774979,510.000000 90.768852,509.977386 116.762634,510.017090   C122.732361,510.026184 128.391159,510.172974 134.351212,512.686401   C143.412094,516.507568 153.202728,518.885010 162.889816,520.866455   C176.838547,523.719727 190.930084,525.975830 205.039062,527.917175   C219.893982,529.961182 234.816391,531.620972 249.755615,532.913391   C262.386749,534.006165 275.078796,534.468628 287.753540,534.962585   C300.662903,535.465698 313.584015,535.666687 327.000000,536.000000  z"
   id="path2" />
<path
   fill="#FFFFFF"
   opacity="1.000000"
   stroke="none"
   d=" M606.999634,140.000000   C616.128296,140.706787 625.146667,140.066467 633.298218,142.423615   C646.862671,146.345963 654.950256,156.523895 657.932922,170.401443   C658.647095,173.724014 658.955444,177.196487 658.957458,180.600327   C659.010925,271.765411 659.009338,362.930511 658.991943,454.095612   C658.988525,471.780304 647.686096,487.160645 629.451294,490.947906   C626.281982,491.606171 622.988159,491.957306 619.751709,491.958099   C427.255005,492.004913 234.758301,491.987091 42.261608,492.021698   C24.730577,492.024841 8.072522,479.153046 5.027515,461.896179   C4.492155,458.862152 4.043763,455.761963 4.042027,452.692047   C3.990298,361.193634 3.871316,269.694855 4.104546,178.197021   C4.153368,159.043365 16.296051,146.063629 33.331520,141.092468   C36.402164,140.196411 39.775433,140.042984 43.009106,140.042160   C230.839310,139.994934 418.669525,140.000000 606.999634,140.000000  M359.500000,157.000000   C289.517120,157.000000 219.534225,157.000000 149.551346,157.000000   C114.893280,157.000000 80.235199,156.980255 45.577160,157.011627   C34.607761,157.021545 24.557083,164.368423 22.403088,174.518036   C21.314177,179.648972 21.059866,185.035080 21.055122,190.306381   C20.977442,276.618225 21.132351,362.930573 20.868862,449.241699   C20.825279,463.518036 31.508949,474.175995 45.628529,474.158508   C236.414246,473.922333 427.200470,473.908447 617.986023,474.208954   C630.511597,474.228729 642.140198,463.677826 642.108398,450.146484   C641.898560,360.835785 642.000916,271.524384 641.999146,182.213196   C641.998840,166.797821 632.262817,157.001709 616.936340,157.001236   C531.457581,156.998657 445.978790,157.000000 359.500000,157.000000  z"
   id="path3" />
<path
   fill="#FFFFFF"
   opacity="1.000000"
   stroke="none"
   d=" M410.281616,93.782341   C415.291992,100.787689 420.140594,107.470741 424.713318,114.337517   C425.884766,116.096649 426.184479,118.436256 426.884674,120.509186   C424.913452,121.006126 422.942780,121.934616 420.970886,121.937248   C363.000671,122.014679 305.030334,122.011337 247.060028,121.969559   C243.859818,121.967247 240.659912,121.524078 236.054047,121.181580   C238.077652,116.962379 239.199081,113.266785 241.360825,110.339432   C254.448532,92.616531 267.699677,75.012611 281.049347,57.485538   C288.331970,47.924042 295.607147,38.325375 303.457062,29.236992   C310.346344,21.260773 318.726776,14.498528 329.750397,14.243196   C337.574341,14.061975 345.864899,15.756383 351.433380,22.105671   C364.247803,36.716980 376.755737,51.604027 389.124115,66.596909   C396.351105,75.357414 403.069855,84.537186 410.281616,93.782341  z"
   id="path4" />
<path
   fill="#B9B9B9"
   opacity="1.000000"
   stroke="none"
   d=" M360.000000,157.000000   C445.978790,157.000000 531.457581,156.998657 616.936340,157.001236   C632.262817,157.001709 641.998840,166.797821 641.999146,182.213196   C642.000916,271.524384 641.898560,360.835785 642.108398,450.146484   C642.140198,463.677826 630.511597,474.228729 617.986023,474.208954   C427.200470,473.908447 236.414246,473.922333 45.628529,474.158508   C31.508949,474.175995 20.825279,463.518036 20.868862,449.241699   C21.132351,362.930573 20.977442,276.618225 21.055122,190.306381   C21.059866,185.035080 21.314177,179.648972 22.403088,174.518036   C24.557083,164.368423 34.607761,157.021545 45.577160,157.011627   C80.235199,156.980255 114.893280,157.000000 149.551346,157.000000   C219.534225,157.000000 289.517120,157.000000 360.000000,157.000000  M265.000000,302.500000   C265.000000,329.638916 264.986816,356.777832 265.030060,383.916656   C265.032898,385.700653 265.134369,387.610443 265.756378,389.246338   C268.897522,397.507599 276.467865,400.490845 284.746582,395.464508   C301.954895,385.016602 318.697327,373.801392 335.631592,362.902100   C353.537262,351.377533 371.500580,339.941193 389.328918,328.298248   C400.978180,320.690613 400.993195,311.320953 389.382721,303.731628   C365.885529,288.372528 342.291901,273.160889 318.730255,257.900482   C307.365387,250.539673 296.161346,242.908707 284.556580,235.946579   C273.636658,229.395309 265.002625,234.531113 265.000702,247.055817   C264.997925,265.203888 265.000000,283.351929 265.000000,302.500000  z"
   id="path5" />
<path
   fill="#FFFFFF"
   opacity="1.000000"
   stroke="none"
   d=" M265.000000,302.000000   C265.000000,283.351929 264.997925,265.203888 265.000702,247.055817   C265.002625,234.531113 273.636658,229.395309 284.556580,235.946579   C296.161346,242.908707 307.365387,250.539673 318.730255,257.900482   C342.291901,273.160889 365.885529,288.372528 389.382721,303.731628   C400.993195,311.320953 400.978180,320.690613 389.328918,328.298248   C371.500580,339.941193 353.537262,351.377533 335.631592,362.902100   C318.697327,373.801392 301.954895,385.016602 284.746582,395.464508   C276.467865,400.490845 268.897522,397.507599 265.756378,389.246338   C265.134369,387.610443 265.032898,385.700653 265.030060,383.916656   C264.986816,356.777832 265.000000,329.638916 265.000000,302.000000  z"
   id="path6" />
</svg>
